<?xml version="1.0" standalone="no"?>
<!DOCTYPE svg PUBLIC "-//W3C//DTD SVG 20010904//EN"
 "http://www.w3.org/TR/2001/REC-SVG-20010904/DTD/svg10.dtd">
<svg version="1.0" xmlns="http://www.w3.org/2000/svg"
 width="340.000000pt" height="340.000000pt" viewBox="0 0 340.000000 340.000000"
 preserveAspectRatio="xMidYMid meet">

<g transform="translate(0.000000,340.000000) scale(0.100000,-0.100000)"
fill="#000000" stroke="none">
<path d="M2320 3334 c-584 -50 -776 -91 -871 -184 -55 -55 -59 -72 -59 -262
l0 -138 -52 0 c-73 -1 -183 -16 -244 -35 -37 -11 -70 -32 -119 -77 -125 -114
-185 -243 -172 -367 6 -52 4 -61 -11 -65 -30 -10 -155 -136 -209 -211 -64 -88
-163 -283 -202 -398 -89 -258 -77 -687 26 -921 121 -273 349 -475 617 -545
153 -40 297 -55 541 -55 277 0 390 17 695 104 36 10 116 21 178 25 216 12 338
60 462 185 78 77 139 166 165 240 20 56 19 143 -1 186 -52 110 -220 166 -333
112 -51 -24 -181 -147 -181 -171 0 -16 -179 159 -262 256 -51 58 -55 67 -35
67 7 0 17 10 22 22 6 12 38 37 73 56 109 59 232 55 286 -9 24 -28 32 -49 56
-146 22 -87 79 -36 65 57 -28 191 -202 271 -397 183 -55 -24 -148 -109 -148
-134 0 -5 -37 21 -81 58 -178 148 -240 190 -412 275 -136 68 -137 55 7 133
l88 48 182 -12 c99 -7 219 -15 266 -17 47 -3 119 -9 160 -14 l75 -9 98 67 c54
36 124 87 155 112 31 25 118 91 192 147 l136 102 22 213 c27 263 43 432 49
523 7 120 -15 139 -191 161 -199 25 -957 8 -985 -21 -5 -6 -14 -91 -20 -190
-17 -265 -28 -387 -45 -510 -9 -60 -16 -124 -16 -141 0 -32 -1 -32 -77 -49
-43 -9 -140 -34 -216 -56 -77 -21 -144 -39 -149 -39 -8 0 -9 46 -4 148 l7 147
60 53 c74 67 112 122 133 192 38 129 4 230 -96 281 -21 10 -43 19 -51 19 -23
0 -36 192 -21 303 8 53 3 52 159 67 61 5 187 19 280 30 94 11 230 23 304 28
111 6 136 10 145 24 8 13 7 21 -1 29 -14 14 -239 -2 -458 -31 -271 -36 -386
-37 -297 -1 125 50 780 122 1087 120 109 -1 117 -2 89 -14 -16 -7 -67 -19
-112 -25 -187 -25 -264 -52 -235 -81 9 -9 47 -6 150 11 163 26 202 35 266 62
55 24 63 55 22 82 -20 13 -55 16 -212 15 -103 -1 -258 -7 -343 -15z m685 -651
c-4 -38 -13 -133 -21 -212 -8 -79 -14 -178 -14 -220 0 -128 5 -122 -119 -116
-102 5 -556 -17 -711 -34 -41 -5 -76 -8 -77 -7 -2 1 15 164 22 202 5 28 17 39
93 82 48 27 120 66 160 86 39 20 72 38 72 41 0 3 -46 -18 -101 -46 -56 -28
-113 -55 -127 -60 -22 -9 -24 -8 -11 7 18 22 277 214 319 237 23 12 30 21 23
28 -7 7 -40 -1 -104 -27 -52 -20 -104 -40 -116 -45 -13 -5 -23 -13 -23 -18 0
-8 54 9 153 48 15 6 27 9 27 7 0 -2 -44 -36 -97 -77 -54 -40 -130 -99 -170
-131 -39 -32 -76 -58 -82 -58 -7 0 -9 14 -6 38 5 35 25 292 25 319 0 9 55 12
241 12 133 0 244 3 247 6 3 3 95 5 204 5 l199 0 -6 -67z m-1517 -19 c29 -14
60 -36 68 -50 25 -37 28 -95 9 -160 -24 -84 -126 -184 -249 -245 -86 -42 -93
-44 -197 -47 -98 -4 -112 -2 -163 21 -70 33 -91 68 -83 147 8 96 71 198 170
277 74 59 80 61 182 78 107 18 196 11 263 -21z m-620 -520 c59 -46 123 -64
221 -64 82 0 91 -2 129 -30 37 -27 101 -111 137 -180 20 -38 11 -43 -116 -63
-58 -10 -150 -31 -205 -47 -120 -35 -96 -37 126 -15 80 8 177 18 215 21 l70 6
34 -36 c19 -20 41 -36 48 -36 19 0 16 -14 -7 -35 -28 -25 -22 -55 17 -81 l31
-21 -141 -92 c-201 -131 -303 -180 -409 -195 -99 -15 -108 -19 -108 -50 0 -39
21 -48 102 -41 123 11 457 -11 613 -40 218 -40 373 -99 613 -232 71 -40 206
-147 242 -194 58 -73 89 -190 69 -263 -25 -91 -154 -163 -404 -225 -302 -76
-497 -93 -785 -72 -218 17 -303 32 -416 76 -231 90 -389 259 -483 517 -58 159
-65 210 -65 463 0 270 8 312 98 497 107 219 150 287 241 376 46 45 87 82 91
82 4 0 23 -12 42 -26z m522 -106 l0 -113 -39 58 c-21 32 -53 71 -71 86 l-32
27 63 26 c35 14 67 26 72 27 4 0 7 -50 7 -111z m1540 -62 c0 -2 -19 -16 -42
-31 -24 -16 -37 -21 -29 -11 26 31 1 30 -32 -2 -33 -32 -88 -44 -102 -22 -3 6
-1 10 4 10 6 0 11 4 11 9 0 6 -17 3 -37 -6 -47 -19 -223 -20 -234 -1 -6 10
-15 10 -42 0 -37 -13 -141 -15 -172 -3 -26 11 29 16 350 37 138 8 255 17 260
19 14 5 65 6 65 1z m-865 -35 c16 -7 14 -9 -14 -14 -19 -4 -49 -7 -67 -7 -34
0 -49 -19 -16 -21 39 -2 -46 -28 -93 -29 -28 0 -66 -8 -85 -17 -28 -14 -51
-17 -110 -13 l-75 6 45 12 c25 7 59 17 76 23 43 13 286 67 304 68 8 0 24 -4
35 -8z m120 -10 c40 -9 39 -9 -17 -10 -33 0 -58 3 -58 9 0 12 20 12 75 1z
m-55 -46 c-14 -8 -46 -17 -72 -21 -38 -5 -46 -10 -45 -26 1 -15 6 -18 22 -12
37 13 188 17 180 4 -11 -18 -55 -33 -115 -40 -48 -5 -52 -8 -32 -16 23 -10 22
-10 -12 -27 -49 -23 -45 -37 12 -37 26 0 85 -5 131 -10 46 -6 86 -8 90 -4 3 4
0 9 -6 11 -42 15 20 43 94 43 54 0 64 13 18 22 -16 4 -12 8 20 23 45 20 175
33 175 17 0 -5 -38 -34 -85 -63 -47 -30 -85 -57 -85 -61 0 -15 21 -8 53 16 62
46 288 177 299 174 14 -5 -67 -74 -189 -161 l-91 -66 -114 9 c-62 5 -169 14
-238 19 -69 6 -143 11 -165 11 l-39 0 37 38 c45 46 48 82 10 111 -14 12 -24
22 -22 24 33 22 85 36 134 36 57 0 59 0 35 -14z m185 5 l30 -7 -28 -11 c-16
-7 -61 -12 -100 -11 l-72 1 40 19 c41 19 78 22 130 9z m255 -9 c0 -6 -24 -17
-53 -27 -43 -13 -65 -14 -117 -7 l-65 10 35 16 c39 18 200 24 200 8z m108 -26
c-31 -21 -44 -24 -83 -19 -25 4 -43 10 -40 13 14 14 73 30 115 30 l45 1 -37
-25z m-750 -41 c27 -19 28 -36 2 -59 -36 -33 -110 -16 -110 26 0 44 64 64 108
33z m480 7 c22 -14 -61 -41 -126 -41 -78 0 -95 13 -45 33 41 17 149 22 171 8z
m-649 -57 c12 -15 21 -37 21 -49 0 -25 -53 -77 -104 -101 -28 -14 -35 -13 -68
0 l-37 16 20 34 c25 42 15 69 -31 84 -45 16 -36 31 23 35 144 10 154 9 176
-19z m496 -3 l30 -7 -33 -17 c-27 -15 -44 -16 -105 -10 l-72 9 30 16 c31 18
96 21 150 9z m-603 -347 c101 -53 250 -151 348 -229 64 -52 119 -105 108 -105
-3 0 -39 16 -79 35 -80 38 -235 88 -340 110 -79 17 -313 45 -373 45 -24 0 -46
3 -49 6 -4 4 19 20 51 37 31 16 98 56 147 88 50 32 92 58 93 58 2 1 44 -20 94
-45z m1267 -569 c16 -8 41 -29 56 -47 24 -29 27 -38 21 -82 -9 -81 -51 -152
-145 -247 -90 -91 -168 -139 -266 -165 -85 -23 -93 -19 -50 23 20 20 46 55 56
77 32 70 21 206 -24 292 -16 31 -16 32 3 27 15 -4 34 8 68 43 66 67 122 94
195 94 32 0 71 -7 86 -15z"/>
<path d="M2780 2647 l-65 -61 62 44 c69 47 88 66 76 73 -4 3 -37 -22 -73 -56z"/>
<path d="M2217 2652 c-26 -26 -47 -51 -47 -55 0 -11 29 -8 53 5 20 10 20 12 4
17 -15 5 -11 12 22 36 42 31 51 45 28 45 -7 0 -34 -22 -60 -48z"/>
<path d="M2715 2657 c-56 -21 -107 -46 -95 -47 3 0 32 11 65 25 33 13 70 25
83 25 12 0 22 5 22 10 0 13 -6 12 -75 -13z"/>
<path d="M2568 2594 c-39 -21 -35 -28 5 -8 37 19 44 24 31 24 -5 -1 -21 -8
-36 -16z"/>
<path d="M2853 2548 c-33 -18 -71 -41 -84 -51 -15 -12 -10 -10 14 4 54 30 55
18 2 -20 -81 -58 -56 -49 42 16 53 34 100 63 105 63 4 0 8 5 8 10 0 17 -25 11
-87 -22z m2 -18 c-3 -5 -12 -10 -18 -10 -7 0 -6 4 3 10 19 12 23 12 15 0z"/>
<path d="M2679 2393 l-24 -28 28 24 c25 23 32 31 24 31 -2 0 -14 -12 -28 -27z"/>
<path d="M2759 2309 c-162 -124 -164 -126 -157 -134 4 -5 43 8 85 27 43 20
107 46 143 59 43 16 58 25 44 27 -12 2 -60 -13 -107 -32 -47 -20 -89 -36 -94
-36 -4 0 41 36 100 79 59 44 103 82 98 85 -4 3 -55 -31 -112 -75z"/>
<path d="M2619 2343 l-24 -28 28 24 c25 23 32 31 24 31 -2 0 -14 -12 -28 -27z"/>
<path d="M2349 2333 c-13 -16 -12 -17 4 -4 9 7 17 15 17 17 0 8 -8 3 -21 -13z"/>
<path d="M2484 2334 c-18 -14 -18 -15 4 -4 12 6 22 13 22 15 0 8 -5 6 -26 -11z"/>
<path d="M2506 2251 c-69 -60 -88 -82 -71 -81 2 0 39 34 81 75 43 41 75 75 73
75 -2 0 -39 -31 -83 -69z"/>
<path d="M2337 2261 c-95 -52 -115 -67 -104 -78 4 -3 17 3 30 15 12 11 58 41
102 66 44 25 76 46 70 46 -5 -1 -50 -23 -98 -49z"/>
<path d="M2218 2241 c-37 -25 -68 -52 -68 -58 0 -18 2 -17 46 21 21 19 53 46
69 60 44 37 29 30 -47 -23z"/>
<path d="M2877 2242 c-38 -39 -40 -60 -4 -41 15 8 22 8 28 -2 7 -12 11 -11 19
1 17 26 8 37 -25 30 -5 -1 -1 8 9 19 35 38 10 31 -27 -7z"/>
</g>
</svg>
