<?xml version="1.0" standalone="no"?>
<!DOCTYPE svg PUBLIC "-//W3C//DTD SVG 20010904//EN"
 "http://www.w3.org/TR/2001/REC-SVG-20010904/DTD/svg10.dtd">
<svg version="1.0" xmlns="http://www.w3.org/2000/svg"
 width="643.000000pt" height="80.000000pt" viewBox="0 0 643.000000 80.000000"
 preserveAspectRatio="xMidYMid meet">

<g transform="translate(0.000000,80.000000) scale(0.100000,-0.100000)"
fill="#000000" stroke="none">
<path d="M0 411 l0 -351 185 0 c101 0 207 5 234 11 97 20 152 77 158 161 6 74
-26 134 -88 168 l-46 25 31 20 c46 30 68 79 64 146 -5 69 -32 109 -96 141 -44
21 -61 23 -244 26 l-198 4 0 -351z m364 279 c22 -5 53 -23 70 -40 26 -26 31
-38 31 -79 0 -35 -6 -55 -20 -71 -37 -42 -75 -50 -230 -50 l-145 0 0 125 0
125 128 0 c70 0 145 -5 166 -10z m60 -324 c56 -23 76 -53 76 -112 0 -41 -5
-59 -25 -82 -34 -41 -92 -52 -265 -52 l-140 0 0 130 0 130 160 0 c115 0 170
-4 194 -14z"/>
<path d="M910 410 l0 -350 245 0 245 0 0 30 0 30 -207 2 -208 3 -3 128 -3 127
181 0 180 0 0 35 0 35 -180 0 -181 0 3 123 3 122 203 3 202 2 0 30 0 30 -240
0 -240 0 0 -350z"/>
<path d="M1740 410 l0 -350 35 0 35 0 0 150 0 150 180 0 180 0 0 30 0 30 -180
0 -180 0 0 140 0 140 205 0 205 0 0 30 0 30 -240 0 -240 0 0 -350z"/>
<path d="M2530 411 l0 -351 35 0 35 0 0 110 0 110 128 0 127 -1 75 -109 75
-109 43 -1 42 0 -63 87 c-34 49 -73 102 -85 120 l-23 32 36 16 c128 61 164
249 68 355 -66 74 -103 85 -310 88 l-183 4 0 -351z m315 279 c102 -17 155 -74
155 -170 0 -63 -22 -106 -73 -144 -25 -19 -45 -21 -178 -24 l-149 -3 0 169 c0
93 3 172 7 175 10 10 170 8 238 -3z"/>
<path d="M3410 410 l0 -350 250 0 250 0 0 30 0 30 -210 0 -210 0 0 130 0 130
180 0 180 0 0 35 0 35 -180 0 -180 0 0 125 0 125 200 0 200 0 0 30 0 30 -240
0 -240 0 0 -350z"/>
<path d="M4240 410 l0 -350 250 0 250 0 0 30 0 30 -210 0 -210 0 0 130 0 130
180 0 180 0 0 35 0 35 -180 0 -180 0 0 125 0 125 200 0 200 0 0 30 0 30 -240
0 -240 0 0 -350z"/>
<path d="M5070 410 l0 -350 235 0 235 0 0 30 0 30 -197 2 -198 3 -3 318 -2
317 -35 0 -35 0 0 -350z"/>
<path d="M5870 419 c-85 -188 -156 -345 -158 -350 -2 -5 14 -9 35 -9 l38 0 41
93 40 92 195 3 196 2 38 -87 c21 -49 42 -92 45 -96 4 -5 23 -7 43 -5 l35 3
-157 345 -157 345 -40 3 -39 2 -155 -341z m286 56 l71 -160 -160 -3 c-88 -1
-162 -1 -164 1 -2 2 29 76 68 163 39 87 75 170 81 184 l10 25 11 -25 c7 -14
44 -97 83 -185z"/>
</g>
</svg>
