<?xml version="1.0" standalone="no"?>
<!DOCTYPE svg PUBLIC "-//W3C//DTD SVG 20010904//EN"
 "http://www.w3.org/TR/2001/REC-SVG-20010904/DTD/svg10.dtd">
<svg version="1.0" xmlns="http://www.w3.org/2000/svg"
 width="224.000000pt" height="310.000000pt" viewBox="0 0 224.000000 310.000000"
 preserveAspectRatio="xMidYMid meet">

<g transform="translate(0.000000,310.000000) scale(0.100000,-0.100000)"
fill="#000000" stroke="none">
<path d="M10 2040 l0 -1050 415 0 415 0 0 -495 0 -495 55 0 55 0 0 480 0 480
571 0 570 0 -3 43 -3 42 -370 5 c-203 3 -358 8 -343 12 51 15 175 107 218 163
110 143 131 384 49 560 -28 60 -107 146 -171 187 l-51 33 402 3 401 2 0 45 0
45 -467 0 -467 0 60 36 c76 45 88 57 140 127 136 183 115 484 -44 640 -61 59
-150 113 -232 138 -138 43 -228 49 -727 49 l-473 0 0 -1050z m1120 931 c150
-45 254 -119 303 -218 47 -93 59 -212 32 -316 -41 -159 -140 -249 -337 -309
-70 -21 -93 -22 -540 -26 l-468 -3 0 451 0 451 468 -3 c450 -4 470 -5 542 -27z
m-290 -1426 l0 -465 -360 0 -360 0 0 465 0 465 360 0 360 0 0 -465z m380 439
c97 -24 206 -80 257 -131 81 -81 120 -203 110 -349 -13 -186 -104 -305 -283
-370 -72 -27 -228 -54 -306 -54 l-48 0 0 467 0 466 103 -6 c56 -4 131 -14 167
-23z"/>
</g>
</svg>
